<svg width="13" height="13" viewBox="0 0 13 13" fill="none" xmlns="http://www.w3.org/2000/svg">
<path d="M7.58203 1.08334C7.88119 1.08334 8.1237 1.32585 8.1237 1.625V2.16667H9.7487C10.0479 2.16667 10.2904 2.40918 10.2904 2.70834V11.375C10.2904 11.6742 10.0479 11.9167 9.7487 11.9167H3.2487C2.94955 11.9167 2.70703 11.6742 2.70703 11.375V2.70834C2.70703 2.40918 2.94955 2.16667 3.2487 2.16667H4.8737V1.625C4.8737 1.32585 5.11621 1.08334 5.41536 1.08334H7.58203ZM7.04036 2.16667H5.95703V3.25H3.79036V10.8333H9.20703V3.25H7.04036V2.16667ZM7.04036 4.875V6.5H8.66536V7.58334H7.04036V9.20833H5.95703V7.58334H4.33203V6.5H5.95703V4.875H7.04036Z" fill="black"/>
</svg>
