<svg width="71" height="74" viewBox="0 0 71 74" fill="none" xmlns="http://www.w3.org/2000/svg">
<path d="M68.4008 24.596C66.8429 20.8753 63.727 16.8706 61.271 15.6151C63.0198 18.9971 64.2347 22.6294 64.8726 26.383V26.4472C60.8678 16.4307 54.0588 12.3985 48.4962 3.60083C48.2029 3.16094 47.928 2.7119 47.653 2.24452C47.4973 1.9696 47.3781 1.73133 47.259 1.51139C47.0273 1.06332 46.8489 0.589668 46.7275 0.100103C46.7279 0.078664 46.7208 0.0577519 46.7074 0.0410073C46.694 0.0242626 46.6752 0.0127457 46.6542 0.00846133C46.6246 -0.00282044 46.592 -0.00282044 46.5625 0.00846133V0.0267897C46.5625 0.0451181 46.535 0.0267897 46.535 0.0267897V0.00846133C37.6274 5.23205 34.5941 14.9094 34.3192 19.739C30.7544 19.9863 27.3469 21.302 24.541 23.5146C24.2483 23.2661 23.9424 23.0336 23.6245 22.8181C22.8135 19.9769 22.7819 16.9698 23.5329 14.1122C20.2521 15.7007 17.3373 17.9539 14.9735 20.7287C13.5531 18.9508 13.6539 13.0674 13.7364 11.8394C13.3183 12.0044 12.919 12.2133 12.545 12.4626C11.2984 13.3504 10.1331 14.3471 9.06264 15.441C7.8538 16.6755 6.75026 18.009 5.76353 19.4274C3.4803 22.6638 1.86068 26.3204 0.998147 30.1861L0.933997 30.4336C0.869848 30.736 0.622415 32.3031 0.585758 32.633V32.7246C0.277763 34.3399 0.0878665 35.9754 0.0175781 37.6183L0.0175781 37.8016C0.0319131 46.69 3.37813 55.25 9.39561 61.7917C15.4131 68.3334 23.6645 72.3813 32.5208 73.1363C41.3771 73.8913 50.1946 71.2985 57.2325 65.8698C64.2705 60.4411 69.0174 52.571 70.536 43.8133C70.6002 43.3551 70.646 42.8969 70.701 42.4387C71.4366 36.3931 70.6491 30.2596 68.4099 24.596H68.4008ZM27.4643 52.391C27.6293 52.4826 27.7851 52.5743 27.95 52.6384L27.9775 52.6567C27.8126 52.5712 27.6446 52.4796 27.4735 52.3818L27.4643 52.391ZM64.8817 26.438V26.4105V26.4472V26.438Z" fill="url(#paint0_linear_37_116)"/>
<path d="M68.4008 24.596C66.8429 20.8753 63.727 16.8706 61.271 15.6151C63.0198 18.9971 64.2347 22.6294 64.8726 26.383V26.4563C67.6124 34.2901 67.2184 42.8798 63.7729 50.4298C59.704 59.1633 49.8433 68.1167 34.42 67.6769C17.7595 67.2186 3.07842 54.847 0.329161 38.6447C-0.165706 36.0787 0.329161 34.7957 0.585758 32.7155C0.244624 34.3255 0.0544068 35.9638 0.0175781 37.6091L0.0175781 37.7924C0.0319131 46.6808 3.37813 55.2409 9.39561 61.7826C15.4131 68.3243 23.6645 72.3722 32.5208 73.1272C41.3771 73.8822 50.1946 71.2894 57.2325 65.8607C64.2705 60.4319 69.0174 52.5618 70.536 43.8041C70.6002 43.3459 70.646 42.8877 70.701 42.4295C71.4366 36.384 70.6491 30.2504 68.4099 24.5868L68.4008 24.596Z" fill="url(#paint1_radial_37_116)"/>
<path d="M68.4008 24.596C66.8429 20.8753 63.727 16.8706 61.271 15.6151C63.0198 18.9971 64.2347 22.6294 64.8726 26.383V26.4563C67.6124 34.2901 67.2184 42.8798 63.7729 50.4298C59.704 59.1633 49.8433 68.1167 34.42 67.6769C17.7595 67.2186 3.07842 54.847 0.329161 38.6447C-0.165706 36.0787 0.329161 34.7957 0.585758 32.7155C0.244624 34.3255 0.0544068 35.9638 0.0175781 37.6091L0.0175781 37.7924C0.0319131 46.6808 3.37813 55.2409 9.39561 61.7826C15.4131 68.3243 23.6645 72.3722 32.5208 73.1272C41.3771 73.8822 50.1946 71.2894 57.2325 65.8607C64.2705 60.4319 69.0174 52.5618 70.536 43.8041C70.6002 43.3459 70.646 42.8877 70.701 42.4295C71.4366 36.384 70.6491 30.2504 68.4099 24.5868L68.4008 24.596Z" fill="url(#paint2_radial_37_116)"/>
<path d="M51.1353 28.7657C51.2269 28.8207 51.2819 28.8757 51.3552 28.9307C50.4634 27.347 49.3527 25.897 48.0561 24.6235C37.0224 13.5898 45.1694 0.686611 46.544 0.0359536V0.008461C37.6364 5.23205 34.6031 14.9094 34.3281 19.739C34.7405 19.7115 35.1529 19.684 35.5745 19.684C38.7381 19.6885 41.8442 20.5303 44.5772 22.1238C47.3102 23.7172 49.5728 26.0056 51.1353 28.7565V28.7657Z" fill="url(#paint3_radial_37_116)"/>
<path d="M35.6036 30.9834C35.5394 31.854 32.4236 34.9057 31.3239 34.9057C21.225 34.9057 19.5938 41.0091 19.5938 41.0091C20.0336 46.1593 23.626 50.3932 27.9515 52.6476L28.5563 52.9225C28.9046 53.0753 29.2528 53.2188 29.601 53.3532C31.0871 53.8816 32.644 54.1843 34.2198 54.2513C51.925 55.0761 55.3524 33.082 42.5775 26.6946C45.591 26.3066 48.6412 27.0511 51.1369 28.784C49.5745 26.0331 47.3119 23.7447 44.5788 22.1513C41.8458 20.5578 38.7397 19.716 35.5761 19.7115C35.1545 19.7115 34.7513 19.7298 34.3298 19.7573C30.765 20.0046 27.3575 21.3203 24.5516 23.533C25.1014 23.9912 25.7063 24.596 26.9984 25.8698C29.4086 28.2525 35.5853 30.6994 35.6128 31.0018L35.6036 30.9834Z" fill="url(#paint4_radial_37_116)"/>
<path d="M35.6036 30.9834C35.5394 31.854 32.4236 34.9057 31.3239 34.9057C21.225 34.9057 19.5938 41.0091 19.5938 41.0091C20.0336 46.1593 23.626 50.3932 27.9515 52.6476L28.5563 52.9225C28.9046 53.0753 29.2528 53.2188 29.601 53.3532C31.0871 53.8816 32.644 54.1843 34.2198 54.2513C51.925 55.0761 55.3524 33.082 42.5775 26.6946C45.591 26.3066 48.6412 27.0511 51.1369 28.784C49.5745 26.0331 47.3119 23.7447 44.5788 22.1513C41.8458 20.5578 38.7397 19.716 35.5761 19.7115C35.1545 19.7115 34.7513 19.7298 34.3298 19.7573C30.765 20.0046 27.3575 21.3203 24.5516 23.533C25.1014 23.9912 25.7063 24.596 26.9984 25.8698C29.4086 28.2525 35.5853 30.6994 35.6128 31.0018L35.6036 30.9834Z" fill="url(#paint5_radial_37_116)"/>
<path d="M22.9003 22.3324C23.1752 22.5157 23.4226 22.6715 23.6334 22.8181C22.8224 19.9769 22.7908 16.9698 23.5418 14.1122C20.261 15.7007 17.3462 17.9539 14.9824 20.7287C15.1657 20.7287 20.2977 20.6371 22.9003 22.3233V22.3324Z" fill="url(#paint6_radial_37_116)"/>
<path d="M0.338624 38.6447C3.08788 54.8378 17.7506 67.2095 34.4294 67.6769C49.8528 68.1167 59.7043 59.1542 63.7732 50.4299C67.2187 42.8798 67.6127 34.2901 64.8729 26.4563V26.4197V26.383L64.8912 26.4472C66.1375 34.6766 61.9587 42.6403 55.4154 48.0288L55.3879 48.0747C42.6497 58.4577 30.4613 54.343 27.987 52.6567C27.8037 52.5773 27.6296 52.4918 27.4646 52.4002C20.0416 48.8536 16.9625 42.0813 17.6223 36.2712C15.8589 36.2978 14.1256 35.8124 12.6324 34.8739C11.1392 33.9354 9.95026 32.584 9.20956 30.9834C11.1606 29.7887 13.3851 29.1134 15.671 29.0219C17.957 28.9305 20.2283 29.426 22.2685 30.4611C26.4718 32.367 31.2537 32.5545 35.5933 30.9834C35.5749 30.6902 29.3983 28.2342 26.9789 25.8515C25.6959 24.5868 25.0911 23.982 24.5413 23.5238C24.2486 23.2752 23.9427 23.0427 23.6248 22.8273C23.4141 22.6807 23.185 22.5249 22.8917 22.3416C20.3074 20.6554 15.1571 20.747 14.983 20.747H14.9647C13.5626 18.9692 13.6542 13.0858 13.7367 11.8578C13.3186 12.0227 12.9193 12.2316 12.5453 12.4809C11.2983 13.3717 10.133 14.3714 9.06294 15.4685C7.84499 16.699 6.73223 18.0294 5.73633 19.4457C3.4531 22.6822 1.83348 26.3388 0.970953 30.2045C0.952625 30.2778 -0.312034 35.7946 0.311131 38.6539L0.338624 38.6447Z" fill="url(#paint7_radial_37_116)"/>
<path d="M48.0667 24.6235C49.3633 25.897 50.474 27.347 51.3658 28.9307C51.5491 29.0864 51.7324 29.2331 51.8973 29.3705C59.9618 36.7935 55.7463 47.2865 55.4255 48.038C61.9596 42.6494 66.1476 34.6858 64.8921 26.4563C60.8599 16.4399 54.0601 12.4076 48.4882 3.60999C48.2133 3.17011 47.9384 2.72106 47.6635 2.25369C47.5077 1.97876 47.3885 1.74049 47.2694 1.52055C47.0339 1.06999 46.8524 0.59321 46.7287 0.100103C46.7291 0.078664 46.722 0.0577519 46.7086 0.0410073C46.6953 0.0242626 46.6764 0.0127457 46.6554 0.00846133C46.6259 -0.00282044 46.5933 -0.00282044 46.5638 0.00846133V0.0267897C46.5638 0.0451181 46.5363 0.0267897 46.5363 0.0267897C45.1616 0.686612 37.0055 13.5898 48.0575 24.6235H48.0667Z" fill="url(#paint8_radial_37_116)"/>
<path d="M51.8867 29.3705C51.7309 29.2239 51.5476 29.0773 51.3552 28.9307L51.1352 28.7657C48.6358 27.0338 45.582 26.2924 42.5667 26.6854C55.3416 33.082 51.9142 55.0944 34.209 54.2513C32.6367 54.1864 31.083 53.8867 29.5994 53.3624C29.2511 53.2402 28.9029 53.0997 28.5547 52.9408C28.353 52.8492 28.1606 52.7576 27.959 52.6659H27.9865C30.4608 54.3521 42.6492 58.476 55.4057 48.0838L55.4241 48.0472C55.7448 47.314 59.9603 36.8027 51.905 29.3889L51.8867 29.3705Z" fill="url(#paint9_radial_37_116)"/>
<path d="M19.5842 41.0091C19.5842 41.0091 21.2338 34.9057 31.3144 34.9057C32.4141 34.9057 35.5299 31.854 35.6032 30.9651C31.2593 32.544 26.4699 32.3598 22.2601 30.4519C20.2199 29.4168 17.9486 28.9213 15.6626 29.0128C13.3767 29.1042 11.1522 29.7795 9.20117 30.9743C9.94448 32.576 11.1369 33.9274 12.6335 34.8645C14.1302 35.8015 15.8667 36.2838 17.6322 36.2528C16.9632 42.0629 20.0332 48.8353 27.4654 52.3818C27.6304 52.4735 27.7862 52.5468 27.9511 52.6293C23.6164 50.384 20.0332 46.1502 19.5842 40.9907V41.0091Z" fill="url(#paint10_radial_37_116)"/>
<path d="M68.4015 24.596C66.8436 20.8753 63.7278 16.8706 61.2718 15.6151C63.0206 18.9971 64.2355 22.6294 64.8733 26.383V26.4472C60.8686 16.4307 54.0596 12.3985 48.4969 3.60083C48.2037 3.16094 47.9287 2.7119 47.6538 2.24452C47.498 1.9696 47.3789 1.73133 47.2597 1.51139C47.0281 1.06332 46.8497 0.589668 46.7282 0.100103C46.7287 0.078664 46.7216 0.0577519 46.7082 0.0410073C46.6948 0.0242626 46.6759 0.0127457 46.6549 0.00846133C46.6254 -0.00282044 46.5928 -0.00282044 46.5633 0.00846133V0.0267897C46.5633 0.0451181 46.5358 0.0267897 46.5358 0.0267897V0.00846133C37.6282 5.23205 34.5948 14.9094 34.3199 19.739C34.7323 19.7115 35.1447 19.684 35.5662 19.684C38.7299 19.6885 41.8359 20.5303 44.569 22.1238C47.302 23.7172 49.5646 26.0056 51.127 28.7565C48.6288 27.0301 45.5788 26.2921 42.5677 26.6854C55.3426 33.082 51.9152 55.0944 34.2099 54.2513C32.6346 54.1873 31.0777 53.8876 29.5912 53.3624C29.2429 53.2402 28.8947 53.0997 28.5465 52.9408L27.9416 52.6659H27.9691C27.8042 52.5865 27.6362 52.501 27.4651 52.4093C27.63 52.501 27.7858 52.5926 27.9508 52.6567C23.6161 50.4115 20.0329 46.1777 19.5839 41.0182C19.5839 41.0182 21.2334 34.924 31.314 34.924C32.4137 34.924 35.5296 31.8724 35.6029 30.9834C35.5846 30.7085 29.4079 28.2342 26.9885 25.8698C25.7056 24.5868 25.0916 23.9912 24.5509 23.5329C24.2582 23.2844 23.9523 23.0519 23.6345 22.8365C22.8234 19.9952 22.7918 16.9881 23.5428 14.1305C20.262 15.719 17.3472 17.9722 14.9835 20.747C13.563 18.9692 13.6638 13.0858 13.7463 11.8578C13.3282 12.0227 12.9289 12.2316 12.5549 12.4809C11.3083 13.3688 10.143 14.3655 9.07255 15.4593C7.86371 16.6939 6.76017 18.0273 5.77344 19.4457C3.49021 22.6822 1.87059 26.3388 1.00806 30.2045L0.934748 30.4336C0.870598 30.736 0.56818 32.3306 0.522359 32.6696C0.522359 32.6422 0.522359 32.6971 0.522359 32.6696C0.249005 34.3072 0.074569 35.9598 0 37.6183V37.8016C0.0143349 46.69 3.36055 55.25 9.37803 61.7917C15.3955 68.3334 23.6469 72.3813 32.5032 73.1363C41.3595 73.8913 50.177 71.2985 57.215 65.8698C64.2529 60.4411 68.9998 52.571 70.5185 43.8133C70.5826 43.3551 70.6284 42.8969 70.6834 42.4387C71.4191 36.3931 70.6315 30.2596 68.3924 24.596H68.4015Z" fill="url(#paint11_linear_37_116)"/>
<defs>
<linearGradient id="paint0_linear_37_116" x1="63.7315" y1="11.356" x2="2.94222" y2="66.2631" gradientUnits="userSpaceOnUse">
<stop offset="0.048" stop-color="#FFF44F"/>
<stop offset="0.111" stop-color="#FFE847"/>
<stop offset="0.225" stop-color="#FFC830"/>
<stop offset="0.368" stop-color="#FF980E"/>
<stop offset="0.401" stop-color="#FF8B16"/>
<stop offset="0.462" stop-color="#FF672A"/>
<stop offset="0.534" stop-color="#FF3647"/>
<stop offset="0.705" stop-color="#E31587"/>
</linearGradient>
<radialGradient id="paint1_radial_37_116" cx="0" cy="0" r="1" gradientUnits="userSpaceOnUse" gradientTransform="translate(62.1627 8.14535) scale(74.0439 74.0439)">
<stop offset="0.129" stop-color="#FFBD4F"/>
<stop offset="0.186" stop-color="#FFAC31"/>
<stop offset="0.247" stop-color="#FF9D17"/>
<stop offset="0.283" stop-color="#FF980E"/>
<stop offset="0.403" stop-color="#FF563B"/>
<stop offset="0.467" stop-color="#FF3750"/>
<stop offset="0.71" stop-color="#F5156C"/>
<stop offset="0.782" stop-color="#EB0878"/>
<stop offset="0.86" stop-color="#E50080"/>
</radialGradient>
<radialGradient id="paint2_radial_37_116" cx="0" cy="0" r="1" gradientUnits="userSpaceOnUse" gradientTransform="translate(35.1064 38.4165) scale(74.0439 74.0439)">
<stop offset="0.3" stop-color="#960E18"/>
<stop offset="0.351" stop-color="#B11927" stop-opacity="0.74"/>
<stop offset="0.435" stop-color="#DB293D" stop-opacity="0.343"/>
<stop offset="0.497" stop-color="#F5334B" stop-opacity="0.094"/>
<stop offset="0.53" stop-color="#FF3750" stop-opacity="0"/>
</radialGradient>
<radialGradient id="paint3_radial_37_116" cx="0" cy="0" r="1" gradientUnits="userSpaceOnUse" gradientTransform="translate(44.033 -8.65812) scale(53.6417 53.6417)">
<stop offset="0.132" stop-color="#FFF44F"/>
<stop offset="0.252" stop-color="#FFDC3E"/>
<stop offset="0.506" stop-color="#FF9D12"/>
<stop offset="0.526" stop-color="#FF980E"/>
</radialGradient>
<radialGradient id="paint4_radial_37_116" cx="0" cy="0" r="1" gradientUnits="userSpaceOnUse" gradientTransform="translate(26.9178 57.7575) scale(35.2556)">
<stop offset="0.353" stop-color="#3A8EE6"/>
<stop offset="0.472" stop-color="#5C79F0"/>
<stop offset="0.669" stop-color="#9059FF"/>
<stop offset="1" stop-color="#C139E6"/>
</radialGradient>
<radialGradient id="paint5_radial_37_116" cx="0" cy="0" r="1" gradientUnits="userSpaceOnUse" gradientTransform="translate(39.154 32.3483) rotate(-13.5916) scale(18.6923 21.884)">
<stop offset="0.206" stop-color="#9059FF" stop-opacity="0"/>
<stop offset="0.278" stop-color="#8C4FF3" stop-opacity="0.064"/>
<stop offset="0.747" stop-color="#7716A8" stop-opacity="0.45"/>
<stop offset="0.975" stop-color="#6E008B" stop-opacity="0.6"/>
</radialGradient>
<radialGradient id="paint6_radial_37_116" cx="0" cy="0" r="1" gradientUnits="userSpaceOnUse" gradientTransform="translate(34.1713 5.11567) scale(25.3628 25.3628)">
<stop stop-color="#FFE226"/>
<stop offset="0.121" stop-color="#FFDB27"/>
<stop offset="0.295" stop-color="#FFC82A"/>
<stop offset="0.502" stop-color="#FFA930"/>
<stop offset="0.732" stop-color="#FF7E37"/>
<stop offset="0.792" stop-color="#FF7139"/>
</radialGradient>
<radialGradient id="paint7_radial_37_116" cx="0" cy="0" r="1" gradientUnits="userSpaceOnUse" gradientTransform="translate(54.1077 -10.9712) scale(108.212 108.212)">
<stop offset="0.113" stop-color="#FFF44F"/>
<stop offset="0.456" stop-color="#FF980E"/>
<stop offset="0.622" stop-color="#FF5634"/>
<stop offset="0.716" stop-color="#FF3647"/>
<stop offset="0.904" stop-color="#E31587"/>
</radialGradient>
<radialGradient id="paint8_radial_37_116" cx="0" cy="0" r="1" gradientUnits="userSpaceOnUse" gradientTransform="translate(44.9881 -4.95436) rotate(83.976) scale(79.311 52.0511)">
<stop stop-color="#FFF44F"/>
<stop offset="0.06" stop-color="#FFE847"/>
<stop offset="0.168" stop-color="#FFC830"/>
<stop offset="0.304" stop-color="#FF980E"/>
<stop offset="0.356" stop-color="#FF8B16"/>
<stop offset="0.455" stop-color="#FF672A"/>
<stop offset="0.57" stop-color="#FF3647"/>
<stop offset="0.737" stop-color="#E31587"/>
</radialGradient>
<radialGradient id="paint9_radial_37_116" cx="0" cy="0" r="1" gradientUnits="userSpaceOnUse" gradientTransform="translate(33.5739 14.5099) scale(67.5584 67.5584)">
<stop offset="0.137" stop-color="#FFF44F"/>
<stop offset="0.48" stop-color="#FF980E"/>
<stop offset="0.592" stop-color="#FF5634"/>
<stop offset="0.655" stop-color="#FF3647"/>
<stop offset="0.904" stop-color="#E31587"/>
</radialGradient>
<radialGradient id="paint10_radial_37_116" cx="0" cy="0" r="1" gradientUnits="userSpaceOnUse" gradientTransform="translate(51.4087 18.4642) scale(73.9422 73.9422)">
<stop offset="0.094" stop-color="#FFF44F"/>
<stop offset="0.231" stop-color="#FFE141"/>
<stop offset="0.509" stop-color="#FFAF1E"/>
<stop offset="0.626" stop-color="#FF980E"/>
</radialGradient>
<linearGradient id="paint11_linear_37_116" x1="63.0044" y1="11.063" x2="11.2169" y2="59.5148" gradientUnits="userSpaceOnUse">
<stop offset="0.167" stop-color="#FFF44F" stop-opacity="0.8"/>
<stop offset="0.266" stop-color="#FFF44F" stop-opacity="0.634"/>
<stop offset="0.489" stop-color="#FFF44F" stop-opacity="0.217"/>
<stop offset="0.6" stop-color="#FFF44F" stop-opacity="0"/>
</linearGradient>
</defs>
</svg>
