<svg width="16" height="16" viewBox="0 0 16 16" fill="none" xmlns="http://www.w3.org/2000/svg">
<mask id="mask0_37_97" style="mask-type:luminance" maskUnits="userSpaceOnUse" x="0" y="0" width="16" height="16">
<path d="M15.4546 6.54546H8V9.63637H12.2909C11.8909 11.6 10.2182 12.7273 8 12.7273C5.38182 12.7273 3.27273 10.6182 3.27273 8C3.27273 5.38182 5.38182 3.27273 8 3.27273C9.12728 3.27273 10.1455 3.67273 10.9455 4.32727L13.2727 2C11.8545 0.763637 10.0364 0 8 0C3.56364 0 0 3.56364 0 8C0 12.4364 3.56364 16 8 16C12 16 15.6364 13.0909 15.6364 8C15.6364 7.52728 15.5636 7.01818 15.4546 6.54546Z" fill="white"/>
</mask>
<g mask="url(#mask0_37_97)">
<path d="M-0.726562 12.7273V3.27274L5.45526 8.00001L-0.726562 12.7273Z" fill="#FBBC05"/>
</g>
<mask id="mask1_37_97" style="mask-type:luminance" maskUnits="userSpaceOnUse" x="0" y="0" width="16" height="16">
<path d="M15.4546 6.54546H8V9.63637H12.2909C11.8909 11.6 10.2182 12.7273 8 12.7273C5.38182 12.7273 3.27273 10.6182 3.27273 8C3.27273 5.38182 5.38182 3.27273 8 3.27273C9.12728 3.27273 10.1455 3.67273 10.9455 4.32727L13.2727 2C11.8545 0.763637 10.0364 0 8 0C3.56364 0 0 3.56364 0 8C0 12.4364 3.56364 16 8 16C12 16 15.6364 13.0909 15.6364 8C15.6364 7.52728 15.5636 7.01818 15.4546 6.54546Z" fill="white"/>
</mask>
<g mask="url(#mask1_37_97)">
<path d="M-0.726562 3.27272L5.45526 8L8.00071 5.78181L16.728 4.36363V-0.72728H-0.726562V3.27272Z" fill="#EA4335"/>
</g>
<mask id="mask2_37_97" style="mask-type:luminance" maskUnits="userSpaceOnUse" x="0" y="0" width="16" height="16">
<path d="M15.4546 6.54546H8V9.63637H12.2909C11.8909 11.6 10.2182 12.7273 8 12.7273C5.38182 12.7273 3.27273 10.6182 3.27273 8C3.27273 5.38182 5.38182 3.27273 8 3.27273C9.12728 3.27273 10.1455 3.67273 10.9455 4.32727L13.2727 2C11.8545 0.763637 10.0364 0 8 0C3.56364 0 0 3.56364 0 8C0 12.4364 3.56364 16 8 16C12 16 15.6364 13.0909 15.6364 8C15.6364 7.52728 15.5636 7.01818 15.4546 6.54546Z" fill="white"/>
</mask>
<g mask="url(#mask2_37_97)">
<path d="M-0.726562 12.7273L10.1825 4.36363L13.0553 4.72727L16.728 -0.72728V16.7273H-0.726562V12.7273Z" fill="#34A853"/>
</g>
<mask id="mask3_37_97" style="mask-type:luminance" maskUnits="userSpaceOnUse" x="0" y="0" width="16" height="16">
<path d="M15.4546 6.54546H8V9.63637H12.2909C11.8909 11.6 10.2182 12.7273 8 12.7273C5.38182 12.7273 3.27273 10.6182 3.27273 8C3.27273 5.38182 5.38182 3.27273 8 3.27273C9.12728 3.27273 10.1455 3.67273 10.9455 4.32727L13.2727 2C11.8545 0.763637 10.0364 0 8 0C3.56364 0 0 3.56364 0 8C0 12.4364 3.56364 16 8 16C12 16 15.6364 13.0909 15.6364 8C15.6364 7.52728 15.5636 7.01818 15.4546 6.54546Z" fill="white"/>
</mask>
<g mask="url(#mask3_37_97)">
<path d="M16.7273 16.7273L5.45455 8.00001L4 6.9091L16.7273 3.27274V16.7273Z" fill="#4285F4"/>
</g>
</svg>
