<svg width="14" height="14" viewBox="0 0 14 14" fill="none" xmlns="http://www.w3.org/2000/svg">
<path d="M6.99935 2.33334C8.6027 2.33334 10.018 3.14199 10.8584 4.37501H9.33268V5.54167H12.8327V2.04167H11.666V3.49963C10.6021 2.08347 8.90825 1.16667 6.99935 1.16667C3.77769 1.16667 1.16602 3.77834 1.16602 7.00001H2.33268C2.33268 4.42268 4.42202 2.33334 6.99935 2.33334ZM11.666 7.00001C11.666 9.57735 9.57669 11.6667 6.99935 11.6667C5.39602 11.6667 3.98065 10.858 3.14027 9.62501H4.66602V8.45834H1.16602V11.9583H2.33268V10.5004C3.39657 11.9165 5.09047 12.8333 6.99935 12.8333C10.221 12.8333 12.8327 10.2216 12.8327 7.00001H11.666Z" fill="black"/>
</svg>
