<svg width="13" height="13" viewBox="0 0 13 13" fill="none" xmlns="http://www.w3.org/2000/svg">
<path d="M6.49599 7.80368L5.65533 8.6443C5.84778 8.968 5.95833 9.34608 5.95833 9.75C5.95833 10.9466 4.98828 11.9167 3.79167 11.9167C2.59505 11.9167 1.625 10.9466 1.625 9.75C1.625 8.5534 2.59505 7.58333 3.79167 7.58333C4.19137 7.58333 4.5658 7.69156 4.88724 7.88033L5.72991 7.03766L3.46309 4.77079L4.22912 4.00476L6.49599 6.27158L8.7652 4.0024L9.53122 4.76843L7.26202 7.03766L8.10767 7.88331C8.43023 7.6927 8.80653 7.58333 9.20833 7.58333C10.4049 7.58333 11.375 8.5534 11.375 9.75C11.375 10.9466 10.4049 11.9167 9.20833 11.9167C8.01174 11.9167 7.04167 10.9466 7.04167 9.75C7.04167 9.34819 7.15103 8.9719 7.34164 8.64933L6.49599 7.80368ZM3.79167 10.8333C4.38998 10.8333 4.875 10.3483 4.875 9.75C4.875 9.15168 4.38998 8.66667 3.79167 8.66667C3.19336 8.66667 2.70833 9.15168 2.70833 9.75C2.70833 10.3483 3.19336 10.8333 3.79167 10.8333ZM9.20833 10.8333C9.80666 10.8333 10.2917 10.3483 10.2917 9.75C10.2917 9.15168 9.80666 8.66667 9.20833 8.66667C8.61001 8.66667 8.125 9.15168 8.125 9.75C8.125 10.3483 8.61001 10.8333 9.20833 10.8333ZM10.2917 7.04167V2.70833H2.70833V7.04167H1.625V2.16667C1.625 1.86751 1.86751 1.625 2.16667 1.625H10.8333C11.1325 1.625 11.375 1.86751 11.375 2.16667V7.04167H10.2917Z" fill="black"/>
</svg>
