<svg width="14" height="14" viewBox="0 0 14 14" fill="none" xmlns="http://www.w3.org/2000/svg">
<path d="M3.32184 2.55407L3.99093 3.50992C2.78742 4.35394 2.00065 5.75176 2.00065 7.33333C2.00065 9.91068 4.08999 12 6.66732 12C9.24466 12 11.334 9.91068 11.334 7.33333C11.334 5.75176 10.5472 4.35394 9.34371 3.50992L10.0128 2.55407C11.5172 3.60909 12.5007 5.35636 12.5007 7.33333C12.5007 10.555 9.88895 13.1667 6.66732 13.1667C3.44565 13.1667 0.833984 10.555 0.833984 7.33333C0.833984 5.35636 1.81745 3.60909 3.32184 2.55407ZM6.08398 7.33333V1.5H7.25065V7.33333H6.08398Z" fill="black"/>
</svg>
