<svg width="14" height="14" viewBox="0 0 14 14" fill="none" xmlns="http://www.w3.org/2000/svg">
<path d="M5.83268 4.08334C5.83268 6.33851 7.66085 8.16667 9.91602 8.16667C11.0584 8.16667 12.0913 7.6975 12.8324 6.94138C12.8327 6.96092 12.8327 6.98046 12.8327 7.00001C12.8327 10.2216 10.221 12.8333 6.99935 12.8333C3.77769 12.8333 1.16602 10.2216 1.16602 7.00001C1.16602 3.77834 3.77769 1.16667 6.99935 1.16667C7.01889 1.16667 7.03843 1.16667 7.05797 1.16696C6.30186 1.90808 5.83268 2.94092 5.83268 4.08334ZM2.33268 7.00001C2.33268 9.57735 4.42202 11.6667 6.99935 11.6667C8.78336 11.6667 10.3336 10.6656 11.1188 9.19456C10.7295 9.28591 10.3264 9.33334 9.91602 9.33334C7.0165 9.33334 4.66602 6.98286 4.66602 4.08334C4.66602 3.67295 4.71346 3.26986 4.80479 2.88051C3.33375 3.66581 2.33268 5.216 2.33268 7.00001Z" fill="black"/>
</svg>
