<svg width="12" height="12" viewBox="0 0 12 12" fill="none" xmlns="http://www.w3.org/2000/svg">
<path d="M3.30141 5.00005L5 3.61028V8.3898L3.30141 7.00005H1.5V5.00005H3.30141ZM1 8.00005H2.94444L5.5917 10.1659C5.63635 10.2025 5.6923 10.2225 5.75 10.2225C5.88805 10.2225 6 10.1105 6 9.97245V2.02759C6 1.96988 5.98005 1.91395 5.9435 1.86928C5.85605 1.76242 5.69855 1.74667 5.5917 1.8341L2.94444 4.00003H1C0.72386 4.00003 0.5 4.22389 0.5 4.50003V7.50005C0.5 7.7762 0.72386 8.00005 1 8.00005ZM11.5 6C11.5 7.646 10.7769 9.12315 9.6311 10.1311L8.92225 9.4222C9.8879 8.59685 10.5 7.3699 10.5 6C10.5 4.63008 9.8879 3.40314 8.92225 2.57778L9.6311 1.86889C10.7769 2.87684 11.5 4.35398 11.5 6ZM9 6C9 5.04415 8.553 4.19274 7.85665 3.64336L7.1421 4.35792C7.66065 4.71927 8 5.32 8 6C8 6.68 7.66065 7.2807 7.1421 7.64205L7.85665 8.3566C8.553 7.80725 9 6.9558 9 6Z" fill="black"/>
</svg>
