<svg width="13" height="13" viewBox="0 0 13 13" fill="none" xmlns="http://www.w3.org/2000/svg">
<g clip-path="url(#clip0_37_1005)">
<path d="M10.0664 10.8334H2.16581C2.01624 10.8334 1.89498 10.7122 1.89498 10.5626C1.89498 10.504 1.91399 10.447 1.94915 10.4001L2.16581 10.1112V5.41677C2.16581 4.69643 2.34157 4.01717 2.65253 3.41949L0.753906 1.52087L1.51994 0.754837L12.2444 11.4793L11.4783 12.2453L10.0664 10.8334ZM3.46994 4.2369C3.32738 4.60264 3.24915 5.00056 3.24915 5.41677V9.7501H8.98311L3.46994 4.2369ZM10.8325 8.55075L9.74913 7.46741V5.41677C9.74913 3.62182 8.29405 2.16675 6.49913 2.16675C5.90958 2.16675 5.35667 2.32374 4.87995 2.59819L4.09362 1.81187C4.78182 1.35172 5.60917 1.08342 6.49913 1.08342C8.89238 1.08342 10.8325 3.02352 10.8325 5.41677V8.55075ZM5.14498 11.3751H7.8533C7.8533 12.123 7.24701 12.7293 6.49913 12.7293C5.75125 12.7293 5.14498 12.123 5.14498 11.3751Z" fill="black"/>
</g>
<defs>
<clipPath id="clip0_37_1005">
<rect width="13" height="13" fill="white"/>
</clipPath>
</defs>
</svg>
