<svg width="10" height="10" viewBox="0 0 10 10" fill="none" xmlns="http://www.w3.org/2000/svg">
<g clip-path="url(#clip0_37_1031)">
<path d="M5.0013 7.5C3.62059 7.5 2.5013 6.38071 2.5013 5C2.5013 3.61929 3.62059 2.5 5.0013 2.5C6.38201 2.5 7.5013 3.61929 7.5013 5C7.5013 6.38071 6.38201 7.5 5.0013 7.5ZM5.0013 6.66667C5.92176 6.66667 6.66797 5.92046 6.66797 5C6.66797 4.07953 5.92176 3.33333 5.0013 3.33333C4.08083 3.33333 3.33464 4.07953 3.33464 5C3.33464 5.92046 4.08083 6.66667 5.0013 6.66667ZM4.58464 0.416668H5.41797V1.66667H4.58464V0.416668ZM4.58464 8.33333H5.41797V9.58333H4.58464V8.33333ZM1.46577 2.05372L2.05502 1.46447L2.93891 2.34835L2.34965 2.93761L1.46577 2.05372ZM7.06368 7.65167L7.65297 7.06238L8.53684 7.94629L7.94759 8.53554L7.06368 7.65167ZM7.94759 1.46447L8.53684 2.05372L7.65297 2.93761L7.06368 2.34835L7.94759 1.46447ZM2.34965 7.06238L2.93891 7.65167L2.05502 8.53554L1.46577 7.94629L2.34965 7.06238ZM9.58464 4.58333V5.41667H8.33464V4.58333H9.58464ZM1.66797 4.58333V5.41667H0.417969V4.58333H1.66797Z" fill="black"/>
</g>
<defs>
<clipPath id="clip0_37_1031">
<rect width="10" height="10" fill="white"/>
</clipPath>
</defs>
</svg>
