<svg width="12" height="12" viewBox="0 0 12 12" fill="none" xmlns="http://www.w3.org/2000/svg">
<path d="M0.34375 3.4983C1.88916 2.24852 3.85665 1.5 5.99897 1.5C8.14127 1.5 10.1088 2.24852 11.6542 3.4983L11.0258 4.27626C9.65212 3.16535 7.90327 2.5 5.99897 2.5C4.09469 2.5 2.3458 3.16535 0.972108 4.27626L0.34375 3.4983ZM1.91464 5.4432C3.03077 4.5406 4.45174 4 5.99897 4C7.54622 4 8.96717 4.5406 10.0833 5.4432L9.45492 6.2212C8.51052 5.45745 7.30817 5 5.99897 5C4.68978 5 3.48742 5.45745 2.543 6.2212L1.91464 5.4432ZM3.48554 7.38815C4.17239 6.83265 5.04682 6.5 5.99897 6.5C6.95112 6.5 7.82557 6.83265 8.51242 7.38815L7.88407 8.1661C7.36892 7.7495 6.71307 7.5 5.99897 7.5C5.28487 7.5 4.62903 7.7495 4.1139 8.1661L3.48554 7.38815ZM5.05642 9.33305C5.31402 9.12475 5.64192 9 5.99897 9C6.35602 9 6.68392 9.12475 6.94152 9.33305L5.99897 10.5L5.05642 9.33305Z" fill="black"/>
</svg>
