<svg width="25" height="25" viewBox="0 0 25 25" fill="none" xmlns="http://www.w3.org/2000/svg">
<g clip-path="url(#clip0_3_536)">
<rect width="25" height="25" rx="5" fill="#1D1D1D"/>
<path d="M8.58735 15C8.6561 14.6938 8.5311 14.2563 8.31235 14.0375L6.7936 12.5187C6.3186 12.0437 6.1311 11.5375 6.2686 11.1C6.41235 10.6625 6.8561 10.3625 7.5186 10.25L9.4686 9.925C9.74985 9.875 10.0936 9.625 10.2249 9.36875L11.2999 7.2125C11.6124 6.59375 12.0374 6.25 12.4999 6.25C12.9624 6.25 13.3874 6.59375 13.6999 7.2125L14.7749 9.36875C14.8561 9.53125 15.0249 9.6875 15.2061 9.79375L8.47485 16.525C8.38735 16.6125 8.23735 16.5312 8.26235 16.4062L8.58735 15ZM16.6874 14.0387C16.4624 14.2638 16.3374 14.695 16.4124 15.0013L16.8436 16.8825C17.0249 17.6637 16.9124 18.2513 16.5249 18.5325C16.3603 18.6475 16.1631 18.7067 15.9624 18.7013C15.6436 18.7013 15.2686 18.5825 14.8561 18.3387L13.0249 17.2512C12.7374 17.0825 12.2624 17.0825 11.9749 17.2512L10.1436 18.3387C9.44985 18.745 8.8561 18.8138 8.47485 18.5325C8.3311 18.4263 8.22485 18.2825 8.1561 18.095L15.7561 10.495C16.0436 10.2075 16.4499 10.0763 16.8436 10.145L17.4748 10.2513C18.1374 10.3638 18.5811 10.6638 18.7248 11.1013C18.8624 11.5388 18.6749 12.045 18.1999 12.52L16.6874 14.0387Z" fill="white"/>
</g>
<defs>
<clipPath id="clip0_3_536">
<rect width="25" height="25" rx="5" fill="white"/>
</clipPath>
</defs>
</svg>
