<svg width="116" height="116" viewBox="0 0 116 116" fill="none" xmlns="http://www.w3.org/2000/svg">
<rect x="0.5" y="0.5" width="115" height="115" fill="url(#paint0_linear_208_2)"/>
<rect x="0.5" y="0.5" width="115" height="115" stroke="black"/>
<rect x="0.5" y="0.5" width="115" height="115" stroke="black" stroke-opacity="0.2"/>
<path d="M53.6863 83.1255L56.6888 76.28C59.3612 70.1884 64.1708 65.3392 70.1704 62.6884L78.4351 59.0369C81.0627 57.876 81.0627 54.0711 78.4351 52.9102L70.4283 49.3726C64.2745 46.6536 59.3786 41.6249 56.7521 35.3254L53.7106 28.0304C52.5819 25.3232 48.824 25.3232 47.6953 28.0304L44.6537 35.3253C42.0272 41.6249 37.1312 46.6536 30.9775 49.3726L22.9708 52.9102C20.3431 54.0711 20.3431 57.876 22.9708 59.0369L31.2356 62.6884C37.2351 65.3392 42.0448 70.1884 44.717 76.28L47.7196 83.1255C48.8738 85.7565 52.532 85.7565 53.6863 83.1255ZM83.749 99.7924L84.5934 97.866C86.0988 94.4313 88.8101 91.6964 92.1931 90.2005L94.7946 89.0498C96.2018 88.4276 96.2018 86.3922 94.7946 85.7701L92.3388 84.6838C88.8686 83.1493 86.1087 80.3133 84.629 76.7618L83.762 74.6801C83.1575 73.2294 81.1424 73.2294 80.5378 74.6801L79.6709 76.7618C78.1915 80.3133 75.4316 83.1493 71.9614 84.6838L69.5053 85.7701C68.0984 86.3922 68.0984 88.4276 69.5053 89.0498L72.1068 90.2005C75.4901 91.6964 78.2011 94.4313 79.7065 97.866L80.5512 99.7924C81.1691 101.203 83.1308 101.203 83.749 99.7924Z" fill="url(#paint1_linear_208_2)"/>
<defs>
<linearGradient id="paint0_linear_208_2" x1="58" y1="0" x2="58" y2="116" gradientUnits="userSpaceOnUse">
<stop stop-color="#030514"/>
<stop offset="1" stop-color="#7045AD"/>
</linearGradient>
<linearGradient id="paint1_linear_208_2" x1="58.425" y1="26" x2="58.425" y2="100.85" gradientUnits="userSpaceOnUse">
<stop stop-color="#FFB450"/>
<stop offset="1" stop-color="#F7DD18"/>
</linearGradient>
</defs>
</svg>
