<svg width="25" height="25" viewBox="0 0 25 25" fill="none" xmlns="http://www.w3.org/2000/svg">
<g clip-path="url(#clip0_3_540)">
<rect width="25" height="25" rx="5" fill="white"/>
<path d="M19.6705 10.1503C19.3604 9.42036 18.7402 8.63468 18.2513 8.38837C18.5994 9.05188 18.8413 9.76449 18.9682 10.5009V10.5135C18.1711 8.54838 16.8157 7.7573 15.7084 6.03133C15.6501 5.94503 15.5953 5.85693 15.5406 5.76524C15.5096 5.7113 15.4859 5.66455 15.4622 5.6214C15.4161 5.5335 15.3806 5.44058 15.3564 5.34453C15.3565 5.34032 15.3551 5.33622 15.3524 5.33294C15.3497 5.32965 15.346 5.32739 15.3418 5.32655C15.3359 5.32434 15.3294 5.32434 15.3235 5.32655V5.33015C15.3235 5.33374 15.3181 5.33015 15.3181 5.33015V5.32655C13.545 6.35135 12.9412 8.24993 12.8865 9.19742C12.1769 9.24593 11.4986 9.50407 10.9401 9.93815C10.8818 9.88939 10.8209 9.84378 10.7577 9.80151C10.5962 9.2441 10.5899 8.65415 10.7394 8.09351C10.0864 8.40517 9.50616 8.84721 9.03564 9.39159C8.75289 9.0428 8.77296 7.88855 8.78937 7.64763C8.70616 7.68 8.62667 7.72098 8.55223 7.76989C8.30409 7.94407 8.07212 8.13961 7.85905 8.35421C7.61842 8.59641 7.39876 8.85802 7.20235 9.13629C6.74786 9.77124 6.42547 10.4886 6.25378 11.247L6.24101 11.2956C6.22824 11.3549 6.17899 11.6623 6.17169 11.7271V11.745C6.11038 12.0619 6.07258 12.3828 6.05859 12.7051V12.7411C6.06145 14.4849 6.72753 16.1642 7.92533 17.4476C9.12313 18.731 10.7656 19.5252 12.5285 19.6733C14.2914 19.8214 16.0465 19.3127 17.4475 18.2477C18.8484 17.1826 19.7933 15.6386 20.0956 13.9205C20.1083 13.8306 20.1175 13.7407 20.1284 13.6508C20.2748 12.4647 20.1181 11.2614 19.6724 10.1503H19.6705ZM11.522 15.6033C11.5548 15.6213 11.5858 15.6393 11.6187 15.6519L11.6241 15.6555C11.5913 15.6387 11.5579 15.6207 11.5238 15.6015L11.522 15.6033ZM18.9701 10.5117V10.5063V10.5135V10.5117Z" fill="url(#paint0_linear_3_540)"/>
<path d="M19.6705 10.1503C19.3604 9.42036 18.7402 8.63468 18.2513 8.38837C18.5994 9.05188 18.8413 9.76449 18.9682 10.5009V10.5153C19.5136 12.0522 19.4352 13.7373 18.7493 15.2186C17.9394 16.932 15.9766 18.6885 12.9065 18.6022C9.59018 18.5123 6.66787 16.0852 6.12062 12.9065C6.02211 12.4031 6.12062 12.1514 6.17169 11.7432C6.10379 12.0591 6.06592 12.3805 6.05859 12.7033V12.7393C6.06145 14.4831 6.72753 16.1624 7.92533 17.4458C9.12313 18.7292 10.7656 19.5234 12.5285 19.6715C14.2914 19.8196 16.0465 19.3109 17.4475 18.2459C18.8484 17.1809 19.7933 15.6368 20.0956 13.9187C20.1083 13.8288 20.1175 13.7389 20.1284 13.649C20.2748 12.463 20.1181 11.2596 19.6724 10.1485L19.6705 10.1503Z" fill="url(#paint1_radial_3_540)"/>
<path d="M19.6705 10.1503C19.3604 9.42036 18.7402 8.63468 18.2513 8.38837C18.5994 9.05188 18.8413 9.76449 18.9682 10.5009V10.5153C19.5136 12.0522 19.4352 13.7373 18.7493 15.2186C17.9394 16.932 15.9766 18.6885 12.9065 18.6022C9.59018 18.5123 6.66787 16.0852 6.12062 12.9065C6.02211 12.4031 6.12062 12.1514 6.17169 11.7432C6.10379 12.0591 6.06592 12.3805 6.05859 12.7033V12.7393C6.06145 14.4831 6.72753 16.1624 7.92533 17.4458C9.12313 18.7292 10.7656 19.5234 12.5285 19.6715C14.2914 19.8196 16.0465 19.3109 17.4475 18.2459C18.8484 17.1809 19.7933 15.6368 20.0956 13.9187C20.1083 13.8288 20.1175 13.7389 20.1284 13.649C20.2748 12.463 20.1181 11.2596 19.6724 10.1485L19.6705 10.1503Z" fill="url(#paint2_radial_3_540)"/>
<path d="M16.2342 10.9683C16.2524 10.9791 16.2634 10.9899 16.278 11.0007C16.1005 10.69 15.8794 10.4055 15.6213 10.1557C13.425 7.99102 15.0467 5.45958 15.3203 5.33193V5.32654C13.5472 6.35134 12.9434 8.24992 12.8887 9.19741C12.9708 9.19201 13.0528 9.18662 13.1368 9.18662C13.7665 9.18751 14.3848 9.35266 14.9288 9.66527C15.4728 9.97789 15.9232 10.4268 16.2342 10.9665V10.9683Z" fill="url(#paint3_radial_3_540)"/>
<path d="M13.1419 11.4034C13.1291 11.5742 12.5089 12.1729 12.29 12.1729C10.2798 12.1729 9.95508 13.3703 9.95508 13.3703C10.0426 14.3807 10.7577 15.2114 11.6187 15.6537L11.7391 15.7076C11.8084 15.7376 11.8778 15.7657 11.9471 15.7921C12.2429 15.8957 12.5528 15.9551 12.8665 15.9683C16.3907 16.1301 17.073 11.8151 14.5301 10.562C15.1299 10.4859 15.7371 10.632 16.2339 10.9719C15.9229 10.4322 15.4725 9.98329 14.9285 9.67067C14.3844 9.35805 13.7662 9.19291 13.1364 9.19202C13.0525 9.19202 12.9723 9.19561 12.8883 9.20101C12.1788 9.24952 11.5005 9.50765 10.942 9.94174C11.0514 10.0316 11.1718 10.1503 11.429 10.4002C11.9088 10.8677 13.1383 11.3477 13.1437 11.407L13.1419 11.4034Z" fill="url(#paint4_radial_3_540)"/>
<path d="M13.1419 11.4034C13.1291 11.5742 12.5089 12.1729 12.29 12.1729C10.2798 12.1729 9.95508 13.3703 9.95508 13.3703C10.0426 14.3807 10.7577 15.2114 11.6187 15.6537L11.7391 15.7076C11.8084 15.7376 11.8778 15.7657 11.9471 15.7921C12.2429 15.8957 12.5528 15.9551 12.8665 15.9683C16.3907 16.1301 17.073 11.8151 14.5301 10.562C15.1299 10.4859 15.7371 10.632 16.2339 10.9719C15.9229 10.4322 15.4725 9.98329 14.9285 9.67067C14.3844 9.35805 13.7662 9.19291 13.1364 9.19202C13.0525 9.19202 12.9723 9.19561 12.8883 9.20101C12.1788 9.24952 11.5005 9.50765 10.942 9.94174C11.0514 10.0316 11.1718 10.1503 11.429 10.4002C11.9088 10.8677 13.1383 11.3477 13.1437 11.407L13.1419 11.4034Z" fill="url(#paint5_radial_3_540)"/>
<path d="M10.6142 9.70622C10.6689 9.74218 10.7181 9.77274 10.7601 9.80151C10.5987 9.2441 10.5924 8.65414 10.7419 8.09351C10.0888 8.40516 9.50861 8.8472 9.03809 9.39159C9.07457 9.39159 10.0961 9.37361 10.6142 9.70442V9.70622Z" fill="url(#paint6_radial_3_540)"/>
<path d="M6.12281 12.9065C6.67006 16.0834 9.58873 18.5105 12.9087 18.6022C15.9788 18.6885 17.9398 16.9302 18.7497 15.2186C19.4355 13.7374 19.514 12.0522 18.9686 10.5153V10.5081V10.5009L18.9723 10.5135C19.2203 12.128 18.3885 13.6904 17.0861 14.7475L17.0806 14.7565C14.545 16.7935 12.1189 15.9863 11.6263 15.6555C11.5898 15.6399 11.5552 15.6231 11.5223 15.6051C10.0448 14.9093 9.43185 13.5807 9.56319 12.4408C9.21217 12.4461 8.86715 12.3508 8.56993 12.1667C8.27271 11.9826 8.03604 11.7175 7.8886 11.4035C8.27696 11.1691 8.71976 11.0366 9.17479 11.0186C9.62982 11.0007 10.0819 11.0979 10.488 11.301C11.3247 11.6749 12.2766 11.7117 13.1404 11.4035C13.1367 11.3459 11.9072 10.8641 11.4257 10.3966C11.1703 10.1485 11.0499 10.0299 10.9404 9.93997C10.8822 9.89121 10.8213 9.84559 10.758 9.80333C10.7161 9.77456 10.6705 9.744 10.6121 9.70804C10.0977 9.37722 9.07249 9.3952 9.03783 9.3952H9.03418C8.75508 9.04641 8.77333 7.89216 8.78974 7.65125C8.70653 7.68361 8.62704 7.72459 8.5526 7.7735C8.30438 7.94825 8.07241 8.1444 7.85942 8.35962C7.61698 8.60104 7.39548 8.86204 7.19724 9.1399C6.74276 9.77485 6.42037 10.4922 6.24868 11.2506C6.24503 11.265 5.99329 12.3473 6.11734 12.9083L6.12281 12.9065Z" fill="url(#paint7_radial_3_540)"/>
<path d="M15.6234 10.1557C15.8815 10.4056 16.1025 10.69 16.2801 11.0007C16.3165 11.0313 16.353 11.06 16.3859 11.087C17.9911 12.5433 17.152 14.6019 17.0882 14.7493C18.3888 13.6922 19.2224 12.1298 18.9725 10.5153C18.1699 8.55018 16.8164 7.7591 15.7073 6.03312C15.6525 5.94682 15.5978 5.85873 15.5431 5.76703C15.5121 5.7131 15.4884 5.66635 15.4647 5.6232C15.4178 5.53481 15.3817 5.44127 15.357 5.34453C15.3571 5.34032 15.3557 5.33622 15.353 5.33294C15.3504 5.32965 15.3466 5.32739 15.3424 5.32655C15.3366 5.32434 15.3301 5.32434 15.3242 5.32655V5.33015C15.3242 5.33374 15.3187 5.33015 15.3187 5.33015C15.0451 5.45959 13.4216 7.99103 15.6215 10.1557H15.6234Z" fill="url(#paint8_radial_3_540)"/>
<path d="M16.384 11.087C16.353 11.0582 16.3165 11.0295 16.2782 11.0007L16.2344 10.9683C15.7369 10.6286 15.129 10.4831 14.5288 10.5602C17.0717 11.8152 16.3895 16.1337 12.8652 15.9683C12.5522 15.9555 12.2429 15.8968 11.9476 15.7939C11.8783 15.7699 11.809 15.7424 11.7397 15.7112C11.6995 15.6932 11.6612 15.6752 11.6211 15.6573H11.6266C12.1191 15.9881 14.5452 16.7971 17.0845 14.7583L17.0881 14.7511C17.152 14.6073 17.9911 12.5451 16.3876 11.0906L16.384 11.087Z" fill="url(#paint9_radial_3_540)"/>
<path d="M9.9535 13.3703C9.9535 13.3703 10.2819 12.1729 12.2884 12.1729C12.5073 12.1729 13.1276 11.5742 13.1421 11.3998C12.2775 11.7096 11.3241 11.6735 10.4862 11.2991C10.08 11.0961 9.62793 10.9989 9.1729 11.0168C8.71787 11.0347 8.27508 11.1672 7.88672 11.4016C8.03468 11.7159 8.27203 11.981 8.56994 12.1648C8.86786 12.3487 9.21352 12.4433 9.56495 12.4372C9.43179 13.5771 10.0429 14.9057 11.5223 15.6015C11.5551 15.6195 11.5861 15.6339 11.619 15.6501C10.7561 15.2096 10.0429 14.3789 9.9535 13.3667V13.3703Z" fill="url(#paint10_radial_3_540)"/>
<path d="M19.6713 10.1503C19.3611 9.42036 18.7409 8.63468 18.2521 8.38837C18.6002 9.05188 18.842 9.76449 18.969 10.5009V10.5135C18.1718 8.54838 16.8164 7.7573 15.7092 6.03133C15.6508 5.94503 15.5961 5.85693 15.5413 5.76524C15.5103 5.7113 15.4866 5.66455 15.4629 5.6214C15.4168 5.5335 15.3813 5.44058 15.3571 5.34453C15.3572 5.34032 15.3558 5.33622 15.3531 5.33294C15.3504 5.32965 15.3467 5.32739 15.3425 5.32655C15.3366 5.32434 15.3301 5.32434 15.3243 5.32655V5.33015C15.3243 5.33374 15.3188 5.33015 15.3188 5.33015V5.32655C13.5457 6.35135 12.9419 8.24993 12.8872 9.19742C12.9693 9.19203 13.0514 9.18663 13.1353 9.18663C13.765 9.18753 14.3833 9.35267 14.9273 9.66529C15.4713 9.9779 15.9217 10.4269 16.2327 10.9665C15.7354 10.6278 15.1283 10.4831 14.5289 10.5602C17.0718 11.8152 16.3896 16.1337 12.8653 15.9683C12.5517 15.9557 12.2418 15.8969 11.9459 15.7939C11.8766 15.7699 11.8073 15.7424 11.7379 15.7112L11.6176 15.6573H11.623C11.5902 15.6417 11.5567 15.6249 11.5227 15.6069C11.5555 15.6249 11.5865 15.6429 11.6194 15.6555C10.7565 15.215 10.0433 14.3843 9.95391 13.3721C9.95391 13.3721 10.2823 12.1765 12.2888 12.1765C12.5077 12.1765 13.128 11.5778 13.1426 11.4034C13.1389 11.3495 11.9094 10.8641 11.4278 10.4002C11.1725 10.1485 11.0502 10.0316 10.9426 9.94175C10.8844 9.89299 10.8235 9.84737 10.7602 9.80511C10.5988 9.2477 10.5925 8.65774 10.742 8.09711C10.0889 8.40876 9.5087 8.8508 9.03818 9.39519C8.75543 9.0464 8.7755 7.89215 8.79192 7.65123C8.7087 7.6836 8.62921 7.72458 8.55478 7.77349C8.30663 7.94767 8.07466 8.1432 7.86159 8.3578C7.62097 8.60001 7.4013 8.86162 7.20489 9.13989C6.7504 9.77483 6.42801 10.4922 6.25632 11.2506L6.24173 11.2956C6.22896 11.3549 6.16876 11.6677 6.15964 11.7342C6.10523 12.0555 6.07051 12.3797 6.05566 12.7051V12.7411C6.05852 14.4849 6.7246 16.1642 7.9224 17.4476C9.1202 18.731 10.7627 19.5252 12.5256 19.6733C14.2884 19.8214 16.0436 19.3127 17.4445 18.2477C18.8455 17.1826 19.7903 15.6386 20.0926 13.9205C20.1054 13.8306 20.1145 13.7407 20.1255 13.6508C20.2719 12.4647 20.1151 11.2614 19.6694 10.1503H19.6713Z" fill="url(#paint11_linear_3_540)"/>
</g>
<defs>
<linearGradient id="paint0_linear_3_540" x1="18.7411" y1="7.5528" x2="6.79872" y2="18.4972" gradientUnits="userSpaceOnUse">
<stop offset="0.048" stop-color="#FFF44F"/>
<stop offset="0.111" stop-color="#FFE847"/>
<stop offset="0.225" stop-color="#FFC830"/>
<stop offset="0.368" stop-color="#FF980E"/>
<stop offset="0.401" stop-color="#FF8B16"/>
<stop offset="0.462" stop-color="#FF672A"/>
<stop offset="0.534" stop-color="#FF3647"/>
<stop offset="0.705" stop-color="#E31587"/>
</linearGradient>
<radialGradient id="paint1_radial_3_540" cx="0" cy="0" r="1" gradientUnits="userSpaceOnUse" gradientTransform="translate(18.4288 6.9229) scale(14.7387 14.5265)">
<stop offset="0.129" stop-color="#FFBD4F"/>
<stop offset="0.186" stop-color="#FFAC31"/>
<stop offset="0.247" stop-color="#FF9D17"/>
<stop offset="0.283" stop-color="#FF980E"/>
<stop offset="0.403" stop-color="#FF563B"/>
<stop offset="0.467" stop-color="#FF3750"/>
<stop offset="0.71" stop-color="#F5156C"/>
<stop offset="0.782" stop-color="#EB0878"/>
<stop offset="0.86" stop-color="#E50080"/>
</radialGradient>
<radialGradient id="paint2_radial_3_540" cx="0" cy="0" r="1" gradientUnits="userSpaceOnUse" gradientTransform="translate(13.0432 12.8617) scale(14.7387 14.5265)">
<stop offset="0.3" stop-color="#960E18"/>
<stop offset="0.351" stop-color="#B11927" stop-opacity="0.74"/>
<stop offset="0.435" stop-color="#DB293D" stop-opacity="0.343"/>
<stop offset="0.497" stop-color="#F5334B" stop-opacity="0.094"/>
<stop offset="0.53" stop-color="#FF3750" stop-opacity="0"/>
</radialGradient>
<radialGradient id="paint3_radial_3_540" cx="0" cy="0" r="1" gradientUnits="userSpaceOnUse" gradientTransform="translate(14.8205 3.62627) scale(10.6776 10.5238)">
<stop offset="0.132" stop-color="#FFF44F"/>
<stop offset="0.252" stop-color="#FFDC3E"/>
<stop offset="0.506" stop-color="#FF9D12"/>
<stop offset="0.526" stop-color="#FF980E"/>
</radialGradient>
<radialGradient id="paint4_radial_3_540" cx="0" cy="0" r="1" gradientUnits="userSpaceOnUse" gradientTransform="translate(11.413 16.6562) scale(7.01776 6.91668)">
<stop offset="0.353" stop-color="#3A8EE6"/>
<stop offset="0.472" stop-color="#5C79F0"/>
<stop offset="0.669" stop-color="#9059FF"/>
<stop offset="1" stop-color="#C139E6"/>
</radialGradient>
<radialGradient id="paint5_radial_3_540" cx="0" cy="0" r="1" gradientUnits="userSpaceOnUse" gradientTransform="translate(13.8486 11.6712) rotate(-13.4029) scale(3.71783 4.29675)">
<stop offset="0.206" stop-color="#9059FF" stop-opacity="0"/>
<stop offset="0.278" stop-color="#8C4FF3" stop-opacity="0.064"/>
<stop offset="0.747" stop-color="#7716A8" stop-opacity="0.45"/>
<stop offset="0.975" stop-color="#6E008B" stop-opacity="0.6"/>
</radialGradient>
<radialGradient id="paint6_radial_3_540" cx="0" cy="0" r="1" gradientUnits="userSpaceOnUse" gradientTransform="translate(12.8577 6.32851) scale(5.04857 4.97586)">
<stop stop-color="#FFE226"/>
<stop offset="0.121" stop-color="#FFDB27"/>
<stop offset="0.295" stop-color="#FFC82A"/>
<stop offset="0.502" stop-color="#FFA930"/>
<stop offset="0.732" stop-color="#FF7E37"/>
<stop offset="0.792" stop-color="#FF7139"/>
</radialGradient>
<radialGradient id="paint7_radial_3_540" cx="0" cy="0" r="1" gradientUnits="userSpaceOnUse" gradientTransform="translate(16.8258 3.17251) scale(21.54 21.2297)">
<stop offset="0.113" stop-color="#FFF44F"/>
<stop offset="0.456" stop-color="#FF980E"/>
<stop offset="0.622" stop-color="#FF5634"/>
<stop offset="0.716" stop-color="#FF3647"/>
<stop offset="0.904" stop-color="#E31587"/>
</radialGradient>
<radialGradient id="paint8_radial_3_540" cx="0" cy="0" r="1" gradientUnits="userSpaceOnUse" gradientTransform="translate(15.0105 4.35291) rotate(83.8886) scale(15.5623 10.3593)">
<stop stop-color="#FFF44F"/>
<stop offset="0.06" stop-color="#FFE847"/>
<stop offset="0.168" stop-color="#FFC830"/>
<stop offset="0.304" stop-color="#FF980E"/>
<stop offset="0.356" stop-color="#FF8B16"/>
<stop offset="0.455" stop-color="#FF672A"/>
<stop offset="0.57" stop-color="#FF3647"/>
<stop offset="0.737" stop-color="#E31587"/>
</radialGradient>
<radialGradient id="paint9_radial_3_540" cx="0" cy="0" r="1" gradientUnits="userSpaceOnUse" gradientTransform="translate(12.7388 8.17154) scale(13.4478 13.2541)">
<stop offset="0.137" stop-color="#FFF44F"/>
<stop offset="0.48" stop-color="#FF980E"/>
<stop offset="0.592" stop-color="#FF5634"/>
<stop offset="0.655" stop-color="#FF3647"/>
<stop offset="0.904" stop-color="#E31587"/>
</radialGradient>
<radialGradient id="paint10_radial_3_540" cx="0" cy="0" r="1" gradientUnits="userSpaceOnUse" gradientTransform="translate(16.2883 8.94732) scale(14.7185 14.5065)">
<stop offset="0.094" stop-color="#FFF44F"/>
<stop offset="0.231" stop-color="#FFE141"/>
<stop offset="0.509" stop-color="#FFAF1E"/>
<stop offset="0.626" stop-color="#FF980E"/>
</radialGradient>
<linearGradient id="paint11_linear_3_540" x1="18.5969" y1="7.4953" x2="8.42817" y2="17.1481" gradientUnits="userSpaceOnUse">
<stop offset="0.167" stop-color="#FFF44F" stop-opacity="0.8"/>
<stop offset="0.266" stop-color="#FFF44F" stop-opacity="0.634"/>
<stop offset="0.489" stop-color="#FFF44F" stop-opacity="0.217"/>
<stop offset="0.6" stop-color="#FFF44F" stop-opacity="0"/>
</linearGradient>
<clipPath id="clip0_3_540">
<rect width="25" height="25" rx="5" fill="white"/>
</clipPath>
</defs>
</svg>
