<svg width="25" height="25" viewBox="0 0 25 25" fill="none" xmlns="http://www.w3.org/2000/svg">
<g clip-path="url(#clip0_3_565)">
<rect width="25" height="25" rx="12.5" fill="white"/>
<path d="M13.5 12C13.5 12.5523 13.0523 13 12.5 13C11.9477 13 11.5 12.5523 11.5 12C11.5 11.4477 11.9477 11 12.5 11C13.0523 11 13.5 11.4477 13.5 12Z" fill="#171717"/>
<path d="M13 4.5C13 4.22386 12.7761 4 12.5 4C12.2239 4 12 4.22386 12 4.5H13ZM13 12V4.5H12V12H13Z" fill="#171717"/>
<path d="M15.4697 16.0303C15.7626 16.3232 16.2374 16.3232 16.5303 16.0303C16.8232 15.7374 16.8232 15.2626 16.5303 14.9697L15.4697 16.0303ZM11.9697 12.5303L15.4697 16.0303L16.5303 14.9697L13.0303 11.4697L11.9697 12.5303Z" fill="#171717"/>
</g>
<defs>
<clipPath id="clip0_3_565">
<rect width="25" height="25" rx="5" fill="white"/>
</clipPath>
</defs>
</svg>
