<svg width="25" height="25" viewBox="0 0 25 25" fill="none" xmlns="http://www.w3.org/2000/svg">
<g clip-path="url(#clip0_3_583)">
<path d="M5 0C2.23858 0 0 2.23858 0 5V20C0 22.7614 2.23858 25 5 25H20C22.7614 25 25 22.7614 25 20V8C25 5.23858 22.7614 3 20 3H11.584C10.8124 1.2341 9.05032 0 7 0H5Z" fill="#58AAFF"/>
<rect x="6" y="19" width="13" height="17" rx="3" fill="#2A71BC"/>
<path d="M8.5 22.5C8.5 21.9477 8.94772 21.5 9.5 21.5H15.5C16.0523 21.5 16.5 21.9477 16.5 22.5C16.5 23.0523 16.0523 23.5 15.5 23.5H9.5C8.94772 23.5 8.5 23.0523 8.5 22.5Z" fill="white"/>
</g>
<defs>
<clipPath id="clip0_3_583">
<rect width="25" height="25" rx="5" fill="white"/>
</clipPath>
</defs>
</svg>
