<svg width="158" height="157" viewBox="0 0 158 157" fill="none" xmlns="http://www.w3.org/2000/svg">
<path d="M29.9066 110.175C30.7672 106.342 29.2025 100.865 26.4643 98.1271L7.45329 79.1161C1.50747 73.1703 -0.839563 66.8333 0.881597 61.3569C2.68099 55.8805 8.23564 52.1252 16.5285 50.717L40.9377 46.6488C44.4582 46.0229 48.7611 42.8935 50.404 39.6859L63.8604 12.695C67.7721 4.94981 73.092 0.646912 78.8814 0.646912C84.6708 0.646912 89.9907 4.94981 93.9024 12.695L107.359 39.6859C108.376 41.72 110.488 43.6759 112.757 45.0059L28.4984 129.264C27.4031 130.36 25.5255 129.343 25.8384 127.778L29.9066 110.175ZM131.299 98.1427C128.482 100.959 126.917 106.357 127.856 110.191L133.254 133.739C135.523 143.519 134.115 150.873 129.264 154.393C127.204 155.833 124.736 156.574 122.223 156.506C118.233 156.506 113.539 155.019 108.376 151.968L85.4531 138.355C81.8543 136.243 75.9085 136.243 72.3097 138.355L49.387 151.968C40.703 157.053 33.2707 157.914 28.4984 154.393C26.699 153.063 25.369 151.264 24.5084 148.917L119.642 53.7838C123.24 50.185 128.326 48.5421 133.254 49.4027L141.156 50.7326C149.449 52.1409 155.004 55.8961 156.803 61.3725C158.524 66.8489 156.177 73.1859 150.231 79.1318L131.299 98.1427Z" fill="black"/>
</svg>
