<svg width="25" height="25" viewBox="0 0 25 25" fill="none" xmlns="http://www.w3.org/2000/svg">
<g clip-path="url(#clip0_3_579)">
<rect width="25" height="25" rx="5" fill="#FF3A3A"/>
<path d="M17.3753 10.3744L16.5061 11.2436L14.7561 9.49359L15.6253 8.62443C15.8703 8.37943 16.1853 8.26276 16.5003 8.26276C16.8153 8.26276 17.1303 8.37943 17.3753 8.62443C17.8595 9.10859 17.8595 9.89026 17.3753 10.3744ZM16.0978 11.6583L9.79196 17.9583C9.30779 18.4425 8.52613 18.4425 8.04196 17.9583C7.55779 17.4742 7.55779 16.6925 8.04196 16.2083L14.3478 9.90834L16.0978 11.6583ZM11.8045 8.04168L12.0436 7.23084C12.067 7.15501 12.0436 7.07334 11.9911 7.01501C11.9386 6.95668 11.8453 6.93334 11.7695 6.95668L10.9586 7.19584L10.1478 6.95668C10.072 6.93334 9.99029 6.95668 9.93196 7.00918C9.87363 7.06751 9.85613 7.14918 9.87946 7.22501L10.1128 8.04168L9.87363 8.85251C9.85029 8.92834 9.87363 9.01001 9.92613 9.06834C9.98446 9.12668 10.0661 9.14418 10.142 9.12084L10.9586 8.88751L11.7695 9.12668C11.7928 9.13251 11.8103 9.13834 11.8336 9.13834C11.892 9.13834 11.9445 9.11501 11.9911 9.07418C12.0495 9.01584 12.067 8.93418 12.0436 8.85834L11.8045 8.04168ZM9.47113 11.5417L9.71029 10.7308C9.73363 10.655 9.71029 10.5733 9.65779 10.515C9.59946 10.4567 9.51779 10.4392 9.44196 10.4625L8.62529 10.6958L7.81446 10.4567C7.73863 10.4333 7.65696 10.4567 7.59863 10.5092C7.54029 10.5675 7.52279 10.6492 7.54613 10.725L7.77946 11.5417L7.54029 12.3525C7.51696 12.4283 7.54029 12.51 7.59279 12.5683C7.65113 12.6267 7.73279 12.6442 7.80863 12.6208L8.61946 12.3817L9.43029 12.6208C9.44779 12.6267 9.47113 12.6267 9.49446 12.6267C9.55279 12.6267 9.60529 12.6033 9.65196 12.5625C9.71029 12.5042 9.72779 12.4225 9.70446 12.3467L9.47113 11.5417ZM18.2211 14.4583L18.4603 13.6475C18.4836 13.5717 18.4603 13.49 18.4078 13.4317C18.3495 13.3733 18.2678 13.3558 18.192 13.3792L17.3811 13.6183L16.5703 13.3792C16.4945 13.3558 16.4128 13.3792 16.3545 13.4317C16.2961 13.49 16.2786 13.5717 16.302 13.6475L16.5411 14.4583L16.302 15.2692C16.2786 15.345 16.302 15.4267 16.3545 15.485C16.4128 15.5433 16.4945 15.5608 16.5703 15.5375L17.3811 15.2983L18.192 15.5375C18.2095 15.5433 18.2328 15.5433 18.2561 15.5433C18.3145 15.5433 18.367 15.52 18.4136 15.4792C18.472 15.4208 18.4895 15.3392 18.4661 15.2633L18.2211 14.4583Z" fill="white"/>
</g>
<defs>
<clipPath id="clip0_3_579">
<rect width="25" height="25" rx="5" fill="white"/>
</clipPath>
</defs>
</svg>
