<svg width="25" height="25" viewBox="0 0 25 25" fill="none" xmlns="http://www.w3.org/2000/svg">
<g clip-path="url(#clip0_3_570)">
<rect width="25" height="25" rx="5" fill="#4B4B4B"/>
<path d="M17.9785 8.77418C17.0393 8.68085 16.1001 8.61085 15.1551 8.55835V8.55251L15.0268 7.79418C14.9393 7.25751 14.811 6.45251 13.446 6.45251H11.9176C10.5585 6.45251 10.4301 7.22251 10.3368 7.78835L10.2143 8.53501C9.6718 8.57001 9.1293 8.60501 8.5868 8.65751L7.3968 8.77418C7.1518 8.79751 6.9768 9.01335 7.00013 9.25251C7.02347 9.49168 7.23347 9.66668 7.47847 9.64335L8.66847 9.52668C11.7251 9.22335 14.8051 9.34001 17.8968 9.64918H17.9435C18.1651 9.64918 18.3576 9.48001 18.381 9.25251C18.3897 9.13599 18.3525 9.02066 18.2773 8.93124C18.2021 8.84183 18.0948 8.78545 17.9785 8.77418ZM16.9051 10.4717C16.7651 10.3258 16.5726 10.2442 16.3743 10.2442H9.00097C8.80263 10.2442 8.6043 10.3258 8.47013 10.4717C8.33597 10.6175 8.26013 10.8158 8.2718 11.02L8.63347 17.005C8.69763 17.8917 8.7793 19 10.8151 19H14.5601C16.596 19 16.6776 17.8975 16.7418 17.005L17.1035 11.0258C17.1151 10.8158 17.0393 10.6175 16.9051 10.4717ZM13.656 16.0775H11.7135C11.4743 16.0775 11.276 15.8792 11.276 15.64C11.276 15.4008 11.4743 15.2025 11.7135 15.2025H13.656C13.8951 15.2025 14.0935 15.4008 14.0935 15.64C14.0935 15.8792 13.8951 16.0775 13.656 16.0775ZM14.146 13.7442H11.2293C10.9901 13.7442 10.7918 13.5458 10.7918 13.3067C10.7918 13.0675 10.9901 12.8692 11.2293 12.8692H14.146C14.3851 12.8692 14.5835 13.0675 14.5835 13.3067C14.5835 13.5458 14.3851 13.7442 14.146 13.7442Z" fill="white"/>
</g>
<defs>
<clipPath id="clip0_3_570">
<rect width="25" height="25" rx="5" fill="white"/>
</clipPath>
</defs>
</svg>
