<svg width="25" height="25" viewBox="0 0 25 25" fill="none" xmlns="http://www.w3.org/2000/svg">
<g clip-path="url(#clip0_3_558)">
<rect width="25" height="25" rx="5" fill="#5E5E5E"/>
<path d="M17.3953 11.0289C16.3394 11.0289 15.9078 10.2823 16.4328 9.36643C16.7361 8.83559 16.5553 8.15893 16.0244 7.85559L15.0153 7.27809C14.5544 7.00393 13.9594 7.16726 13.6853 7.62809L13.6211 7.73893C13.0961 8.65476 12.2328 8.65476 11.7019 7.73893L11.6378 7.62809C11.5749 7.51783 11.4907 7.42118 11.3901 7.34376C11.2895 7.26633 11.1745 7.20969 11.0519 7.17712C10.9292 7.14455 10.8012 7.1367 10.6755 7.15404C10.5498 7.17137 10.4287 7.21354 10.3194 7.27809L9.31026 7.85559C8.77943 8.15893 8.5986 8.84143 8.90193 9.37226C9.43276 10.2823 9.0011 11.0289 7.94526 11.0289C7.3386 11.0289 6.83693 11.5248 6.83693 12.1373V13.1639C6.83693 13.7706 7.33276 14.2723 7.94526 14.2723C9.0011 14.2723 9.43276 15.0189 8.90193 15.9348C8.5986 16.4656 8.77943 17.1423 9.31026 17.4456L10.3194 18.0231C10.7803 18.2973 11.3753 18.1339 11.6494 17.6731L11.7136 17.5623C12.2386 16.6464 13.1019 16.6464 13.6328 17.5623L13.6969 17.6731C13.9711 18.1339 14.5661 18.2973 15.0269 18.0231L16.0361 17.4456C16.5669 17.1423 16.7478 16.4598 16.4444 15.9348C15.9136 15.0189 16.3453 14.2723 17.4011 14.2723C18.0078 14.2723 18.5094 13.7764 18.5094 13.1639V12.1373C18.5064 11.8433 18.3878 11.5622 18.1794 11.3549C17.9709 11.1475 17.6893 11.0304 17.3953 11.0289ZM12.6703 14.5464C11.6261 14.5464 10.7744 13.6948 10.7744 12.6506C10.7744 11.6064 11.6261 10.7548 12.6703 10.7548C13.7144 10.7548 14.5661 11.6064 14.5661 12.6506C14.5661 13.6948 13.7144 14.5464 12.6703 14.5464Z" fill="#BCBCBC"/>
</g>
<defs>
<clipPath id="clip0_3_558">
<rect width="25" height="25" rx="5" fill="white"/>
</clipPath>
</defs>
</svg>
